<svg width="28" height="22" viewBox="0 0 28 22" fill="none" xmlns="http://www.w3.org/2000/svg">
<path d="M6.41663 0.916748C5.45013 0.916748 4.66663 1.53236 4.66663 2.29175V19.7084C4.66663 20.4678 5.45013 21.0834 6.41663 21.0834H21.5833C22.5498 21.0834 23.3333 20.4678 23.3333 19.7084V6.41675L16.3333 0.916748H6.41663Z" fill="#6B3FB9"/>
<path d="M6.41663 21.0834C5.45013 21.0834 4.66663 20.4678 4.66663 19.7084V19.4792C4.66663 20.2386 5.45013 20.8542 6.41663 20.8542H21.5833C22.5498 20.8542 23.3333 20.2386 23.3333 19.4792V19.7084C23.3333 20.4678 22.5498 21.0834 21.5833 21.0834H6.41663Z" fill="#6439B5"/>
<path d="M6.41663 0.916748C5.45013 0.916748 4.66663 1.53236 4.66663 2.29175V2.52091C4.66663 1.76152 5.45013 1.14591 6.41663 1.14591H16.625L16.3333 0.916748H6.41663Z" fill="#815BC3"/>
<path d="M23.3333 11.1145V6.41659L22.3125 5.6145H17.3895C16.9998 5.6145 16.8046 5.98477 17.0802 6.20132L23.3333 11.1145Z" fill="url(#paint0_linear_63_2154)"/>
<path d="M16.3334 0.916748L23.3334 6.41675H18.0834C17.1169 6.41675 16.3334 5.80114 16.3334 5.04175V0.916748Z" fill="#B7A2DD"/>
<path d="M10.2084 12.1458C10.6916 12.1458 11.0834 11.8379 11.0834 11.4583C11.0834 11.0786 10.6916 10.7708 10.2084 10.7708C9.72512 10.7708 9.33337 11.0786 9.33337 11.4583C9.33337 11.8379 9.72512 12.1458 10.2084 12.1458Z" fill="white"/>
<path d="M18.9584 10.9999H12.5417V11.9166H18.9584V10.9999Z" fill="white"/>
<path d="M18.9584 13.2916H12.5417V14.2083H18.9584V13.2916Z" fill="white"/>
<path d="M12.5417 15.5833H18.9584V16.4999H12.5417V15.5833Z" fill="white"/>
<path d="M11.0834 13.7499C11.0834 14.1296 10.6916 14.4374 10.2084 14.4374C9.72512 14.4374 9.33337 14.1296 9.33337 13.7499C9.33337 13.3702 9.72512 13.0624 10.2084 13.0624C10.6916 13.0624 11.0834 13.3702 11.0834 13.7499Z" fill="white"/>
<path d="M10.2084 16.7291C10.6916 16.7291 11.0834 16.4213 11.0834 16.0416C11.0834 15.6619 10.6916 15.3541 10.2084 15.3541C9.72512 15.3541 9.33337 15.6619 9.33337 16.0416C9.33337 16.4213 9.72512 16.7291 10.2084 16.7291Z" fill="white"/>
<defs>
<linearGradient id="paint0_linear_63_2154" x1="20.1423" y1="11.1145" x2="20.1423" y2="5.49992" gradientUnits="userSpaceOnUse">
<stop stop-color="#6B3FB9"/>
<stop offset="1" stop-color="#5B3DA3"/>
</linearGradient>
</defs>
</svg>